<svg width="1920" height="1080" viewBox="0 0 1920 1080" fill="none" xmlns="http://www.w3.org/2000/svg">
<g clip-path="url(#clip0_113_1750)">
<g opacity="0.95" filter="url(#filter0_if_113_1750)">
<path d="M185.956 158.874C185.314 157.132 186.728 155.322 188.574 155.524C189.723 155.65 190.808 154.972 191.198 153.884C191.826 152.136 194.072 151.658 195.356 153C196.156 153.835 197.423 154.013 198.421 153.431C200.025 152.495 202.054 153.573 202.175 155.426C202.25 156.58 203.107 157.531 204.246 157.727C206.076 158.041 206.936 160.171 205.838 161.668C205.155 162.6 205.199 163.879 205.946 164.761C207.146 166.178 206.436 168.363 204.633 168.804C203.51 169.079 202.722 170.087 202.727 171.243C202.735 173.1 200.787 174.317 199.122 173.496C198.086 172.984 196.834 173.25 196.095 174.139C194.907 175.567 192.633 175.247 191.885 173.548C191.42 172.49 190.29 171.889 189.152 172.094C187.325 172.425 185.788 170.718 186.308 168.935C186.631 167.826 186.152 166.639 185.148 166.066C183.536 165.144 183.456 162.849 185 161.817C185.961 161.175 186.357 159.958 185.956 158.874Z" fill="#52F7C5"/>
<path d="M333.464 19.726C332.906 21.3699 330.814 21.8529 329.592 20.6199C328.831 19.8525 327.644 19.7067 326.72 20.2673C325.236 21.168 323.323 20.1932 323.18 18.4633C323.09 17.3866 322.274 16.5116 321.207 16.3473C319.491 16.0835 318.652 14.107 319.654 12.6895C320.278 11.8073 320.215 10.6125 319.503 9.80026C318.358 8.4953 318.986 6.44196 320.664 6.0002C321.709 5.72524 322.429 4.76972 322.406 3.68955C322.367 1.95411 324.168 0.784677 325.738 1.52533C326.715 1.98632 327.881 1.71718 328.557 0.87449C329.644 -0.479412 331.775 -0.217739 332.501 1.35876C332.953 2.34 334.02 2.88317 335.079 2.67227C336.782 2.33341 338.246 3.90375 337.789 5.57844C337.505 6.62079 337.972 7.72212 338.92 8.24168C340.442 9.07643 340.554 11.2207 339.128 12.2099C338.24 12.8257 337.89 13.9698 338.282 14.9767C338.911 16.5945 337.619 18.3093 335.89 18.1503C334.814 18.0513 333.811 18.7029 333.464 19.726Z" fill="#52F7C5"/>
<path d="M549.846 49.1831C550.236 50.5202 549.083 51.8004 547.713 51.5524C546.86 51.398 546.012 51.8487 545.663 52.6422C545.102 53.917 543.396 54.1568 542.506 53.0859C541.952 52.4194 541.013 52.2198 540.235 52.6033C538.986 53.2194 537.525 52.3065 537.532 50.9138C537.535 50.0469 536.945 49.2905 536.102 49.0846C534.75 48.7537 534.217 47.1153 535.117 46.0524C535.677 45.3909 535.711 44.4315 535.198 43.7325C534.375 42.6094 535.02 41.0122 536.393 40.7765C537.247 40.6298 537.889 39.9164 537.946 39.0514C538.037 37.6616 539.558 36.8529 540.761 37.5546C541.51 37.9914 542.46 37.8578 543.06 37.2316C544.023 36.2254 545.708 36.5836 546.178 37.8944C546.471 38.7103 547.285 39.219 548.147 39.1245C549.531 38.9727 550.592 40.3303 550.11 41.6369C549.809 42.4501 550.106 43.3631 550.827 43.8446C551.985 44.6182 551.925 46.3399 550.716 47.0308C549.963 47.4609 549.603 48.3509 549.846 49.1831Z" fill="#52F7C5"/>
<path d="M599.247 10.4771C598.853 8.49752 600.679 6.79477 602.627 7.32592C603.839 7.65651 605.119 7.11292 605.723 6.0114C606.694 4.24166 609.187 4.111 610.338 5.76958C611.054 6.80191 612.384 7.20866 613.555 6.75319C615.436 6.0214 617.43 7.52396 617.245 9.53392C617.13 10.7849 617.888 11.9517 619.077 12.3554C620.989 13.004 621.55 15.4367 620.117 16.8575C619.224 17.7419 619.055 19.1227 619.707 20.1967C620.754 21.9222 619.621 24.1468 617.609 24.3137C616.357 24.4175 615.34 25.3663 615.149 26.6081C614.842 28.6031 612.544 29.5786 610.895 28.4135C609.869 27.6883 608.48 27.7611 607.536 28.5895C606.018 29.9206 603.631 29.1906 603.117 27.2386C602.797 26.0237 601.686 25.1864 600.43 25.214C598.412 25.2582 597.052 23.1643 597.914 21.3388C598.45 20.2026 598.137 18.8471 597.157 18.0608C595.583 16.7976 595.887 14.3195 597.72 13.4747C598.861 12.9489 599.493 11.7093 599.247 10.4771Z" fill="#52F7C5"/>
<path d="M828.251 115.27C830.042 113.858 832.693 114.823 833.158 117.056C833.446 118.446 834.651 119.456 836.07 119.499C838.349 119.569 839.76 122.012 838.68 124.021C838.008 125.272 838.281 126.82 839.34 127.765C841.042 129.284 840.552 132.062 838.434 132.907C837.115 133.433 836.329 134.794 836.533 136.199C836.861 138.456 834.699 140.27 832.533 139.555C831.185 139.111 829.708 139.648 828.961 140.856C827.761 142.795 824.94 142.795 823.74 140.856C822.993 139.648 821.516 139.111 820.167 139.555C818.001 140.27 815.84 138.456 816.168 136.199C816.372 134.794 815.586 133.433 814.267 132.907C812.148 132.062 811.658 129.284 813.36 127.765C814.419 126.82 814.692 125.272 814.02 124.021C812.941 122.012 814.351 119.569 816.631 119.499C818.05 119.456 819.254 118.446 819.543 117.056C820.007 114.823 822.659 113.858 824.45 115.27C825.564 116.149 827.136 116.149 828.251 115.27Z" fill="#52F7C5"/>
<path d="M244.75 324.225C245.554 325.602 244.628 327.344 243.037 327.448C242.046 327.512 241.23 328.248 241.062 329.226C240.792 330.798 238.963 331.536 237.677 330.593C236.877 330.006 235.778 330.045 235.021 330.686C233.804 331.717 231.928 331.107 231.549 329.558C231.314 328.594 230.448 327.917 229.455 327.922C227.861 327.929 226.815 326.256 227.521 324.826C227.96 323.936 227.731 322.861 226.968 322.227C225.742 321.207 226.017 319.254 227.476 318.612C228.385 318.212 228.901 317.242 228.724 316.265C228.44 314.696 229.906 313.376 231.437 313.823C232.389 314.101 233.408 313.689 233.901 312.827C234.692 311.443 236.663 311.374 237.549 312.7C238.1 313.525 239.145 313.865 240.077 313.521C241.573 312.969 243.127 314.183 242.953 315.768C242.845 316.755 243.427 317.687 244.361 318.022C245.862 318.561 246.272 320.49 245.12 321.593C244.403 322.279 244.25 323.367 244.75 324.225Z" fill="#52F7C5"/>
<path d="M308.405 226.98C306.55 226.695 305.643 224.557 306.726 223.025C307.401 222.07 307.333 220.778 306.563 219.9C305.325 218.489 306.004 216.268 307.819 215.791C308.949 215.493 309.728 214.46 309.702 213.292C309.661 211.415 311.608 210.151 313.306 210.952C314.363 211.45 315.623 211.159 316.354 210.248C317.529 208.784 319.834 209.067 320.62 210.771C321.109 211.833 322.261 212.42 323.407 212.192C325.248 211.825 326.832 213.524 326.338 215.335C326.03 216.462 326.536 217.653 327.56 218.215C329.206 219.117 329.328 221.436 327.785 222.506C326.825 223.172 326.447 224.409 326.87 225.498C327.551 227.247 326.154 229.102 324.284 228.93C323.121 228.823 322.036 229.527 321.66 230.634C321.057 232.411 318.795 232.934 317.473 231.6C316.651 230.771 315.367 230.613 314.368 231.219C312.763 232.193 310.694 231.139 310.539 229.268C310.443 228.104 309.56 227.158 308.405 226.98Z" fill="#52F7C5"/>
<path d="M570.991 272.468C570.552 271.339 571.454 270.143 572.66 270.254C573.41 270.323 574.11 269.868 574.353 269.155C574.742 268.008 576.201 267.671 577.054 268.531C577.585 269.066 578.413 269.168 579.057 268.777C580.093 268.149 581.427 268.829 581.528 270.036C581.59 270.787 582.159 271.397 582.904 271.512C584.101 271.696 584.687 273.075 583.987 274.064C583.552 274.679 583.596 275.513 584.093 276.08C584.892 276.99 584.454 278.423 583.283 278.731C582.554 278.923 582.051 279.589 582.068 280.343C582.094 281.554 580.838 282.37 579.743 281.853C579.061 281.531 578.248 281.719 577.776 282.307C577.018 283.251 575.531 283.069 575.024 281.969C574.709 281.284 573.965 280.905 573.226 281.053C572.038 281.289 571.016 280.193 571.335 279.025C571.533 278.298 571.207 277.529 570.546 277.167C569.484 276.585 569.406 275.089 570.401 274.398C571.021 273.969 571.265 273.171 570.991 272.468Z" fill="#52F7C5"/>
<path d="M638.458 234.688C639.452 236.537 638.153 238.785 636.055 238.849C634.749 238.889 633.641 239.819 633.375 241.098C632.948 243.154 630.508 244.042 628.859 242.742C627.833 241.933 626.386 241.933 625.36 242.742C623.712 244.042 621.272 243.154 620.845 241.098C620.579 239.819 619.471 238.889 618.165 238.849C616.066 238.785 614.768 236.537 615.762 234.688C616.38 233.537 616.129 232.112 615.154 231.242C613.588 229.844 614.039 227.287 615.989 226.51C617.202 226.026 617.926 224.773 617.738 223.48C617.437 221.402 619.426 219.733 621.419 220.391C622.66 220.8 624.02 220.305 624.707 219.194C625.812 217.409 628.408 217.409 629.513 219.194C630.2 220.305 631.56 220.8 632.8 220.391C634.794 219.733 636.783 221.402 636.481 223.48C636.294 224.773 637.017 226.026 638.231 226.51C640.181 227.287 640.632 229.844 639.065 231.242C638.09 232.112 637.839 233.537 638.458 234.688Z" fill="#52F7C5"/>
<path d="M966.728 276.234C968.335 275.012 970.666 275.907 971.042 277.89C971.276 279.124 972.326 280.037 973.581 280.097C975.597 280.194 976.808 282.378 975.821 284.139C975.207 285.235 975.425 286.609 976.347 287.461C977.83 288.831 977.353 291.282 975.466 291.997C974.291 292.442 973.574 293.634 973.733 294.881C973.988 296.883 972.048 298.454 970.142 297.789C968.956 297.374 967.641 297.827 966.961 298.884C965.87 300.582 963.373 300.538 962.341 298.803C961.699 297.723 960.4 297.225 959.201 297.598C957.273 298.196 955.389 296.558 955.714 294.566C955.916 293.326 955.241 292.109 954.082 291.624C952.221 290.843 951.83 288.377 953.36 287.06C954.311 286.24 954.577 284.874 954.002 283.758C953.077 281.963 954.363 279.823 956.381 279.797C957.638 279.781 958.719 278.905 958.996 277.68C959.441 275.711 961.802 274.898 963.365 276.176C964.337 276.971 965.728 276.995 966.728 276.234Z" fill="#52F7C5"/>
<path d="M166.642 473.904C167.859 472.874 169.735 473.483 170.114 475.032C170.35 475.996 171.216 476.673 172.208 476.668C173.803 476.661 174.848 478.334 174.142 479.764C173.703 480.654 173.932 481.729 174.695 482.363C175.921 483.383 175.647 485.336 174.187 485.978C173.279 486.378 172.763 487.348 172.939 488.325C173.223 489.894 171.757 491.214 170.227 490.767C169.274 490.49 168.255 490.901 167.762 491.763C166.971 493.147 165 493.216 164.114 491.89C163.563 491.065 162.518 490.725 161.587 491.069C160.091 491.621 158.537 490.407 158.71 488.822C158.818 487.835 158.236 486.903 157.302 486.568C155.801 486.029 155.391 484.1 156.543 482.997C157.26 482.311 157.413 481.223 156.913 480.365C156.109 478.988 157.035 477.247 158.627 477.142C159.617 477.078 160.434 476.342 160.602 475.364C160.871 473.793 162.7 473.054 163.986 473.997C164.786 474.584 165.885 474.545 166.642 473.904Z" fill="#52F7C5"/>
<path d="M182.433 544.489C183.465 545.624 182.942 547.448 181.465 547.864C180.546 548.123 179.925 548.979 179.962 549.933C180.023 551.466 178.45 552.527 177.051 551.896C176.181 551.504 175.155 551.76 174.57 552.515C173.631 553.728 171.744 553.53 171.078 552.148C170.663 551.288 169.713 550.824 168.78 551.027C167.281 551.353 165.963 549.988 166.34 548.501C166.576 547.576 166.145 546.61 165.3 546.165C163.943 545.451 163.81 543.558 165.055 542.662C165.83 542.104 166.122 541.088 165.76 540.204C165.179 538.785 166.295 537.25 167.824 537.363C168.776 537.434 169.653 536.843 169.944 535.934C170.411 534.473 172.253 534.014 173.351 535.084C174.035 535.75 175.087 535.861 175.894 535.351C177.191 534.533 178.897 535.365 179.05 536.891C179.146 537.841 179.88 538.601 180.826 538.73C182.347 538.937 183.118 540.67 182.255 541.938C181.717 542.727 181.791 543.782 182.433 544.489Z" fill="#52F7C5"/>
<path d="M446.438 523.375C444.787 523.267 443.826 521.459 444.66 520.03C445.179 519.14 445.02 518.01 444.276 517.298C443.08 516.154 443.506 514.151 445.063 513.592C446.033 513.244 446.638 512.276 446.525 511.252C446.345 509.607 447.958 508.347 449.511 508.92C450.477 509.276 451.562 508.924 452.135 508.067C453.054 506.691 455.1 506.762 455.921 508.199C456.432 509.094 457.49 509.521 458.479 509.233C460.068 508.77 461.589 510.139 461.295 511.768C461.111 512.782 461.647 513.789 462.59 514.204C464.105 514.87 464.39 516.898 463.117 517.956C462.325 518.615 462.088 519.73 462.544 520.654C463.276 522.139 462.191 523.875 460.536 523.867C459.506 523.863 458.607 524.565 458.362 525.566C457.969 527.174 456.022 527.806 454.758 526.737C453.972 526.071 452.832 526.031 452.001 526.64C450.667 527.619 448.769 526.852 448.489 525.221C448.314 524.206 447.466 523.442 446.438 523.375Z" fill="#52F7C5"/>
<path d="M772.878 363.321C771.728 361.35 773.053 358.859 775.329 358.71C776.745 358.618 777.914 357.566 778.154 356.167C778.54 353.919 781.156 352.862 782.995 354.211C784.14 355.05 785.711 354.996 786.794 354.078C788.535 352.604 791.218 353.476 791.76 355.692C792.097 357.071 793.336 358.038 794.756 358.032C797.036 358.022 798.532 360.414 797.523 362.46C796.894 363.733 797.221 365.271 798.313 366.178C800.067 367.637 799.674 370.43 797.586 371.349C796.287 371.92 795.549 373.309 795.802 374.705C796.208 376.95 794.111 378.838 791.921 378.199C790.559 377.802 789.101 378.391 788.397 379.623C787.265 381.604 784.446 381.702 783.179 379.805C782.39 378.625 780.895 378.139 779.563 378.631C777.423 379.42 775.2 377.683 775.449 375.416C775.603 374.005 774.77 372.672 773.434 372.192C771.287 371.422 770.701 368.662 772.349 367.085C773.374 366.104 773.593 364.547 772.878 363.321Z" fill="#52F7C5"/>
<path d="M954.869 562.416C955.785 563.356 955.392 564.931 954.143 565.331C953.365 565.579 952.859 566.329 952.92 567.143C953.017 568.452 951.704 569.406 950.49 568.909C949.734 568.6 948.865 568.849 948.388 569.512C947.621 570.576 946.003 570.463 945.392 569.302C945.012 568.579 944.186 568.211 943.394 568.413C942.123 568.736 940.955 567.608 941.234 566.326C941.407 565.528 941.011 564.716 940.275 564.361C939.093 563.791 938.924 562.177 939.961 561.374C940.607 560.874 940.826 559.997 940.49 559.252C939.951 558.056 940.859 556.711 942.17 556.762C942.986 556.794 943.717 556.263 943.939 555.477C944.295 554.214 945.855 553.767 946.826 554.649C947.43 555.198 948.332 555.261 949.007 554.802C950.092 554.063 951.574 554.723 951.751 556.023C951.861 556.832 952.511 557.461 953.324 557.542C954.629 557.674 955.341 559.132 954.641 560.242C954.205 560.932 954.299 561.832 954.869 562.416Z" fill="#52F7C5"/>
<path d="M35.3428 569.888C33.8165 569.735 32.9847 568.029 33.8034 566.732C34.313 565.924 34.2025 564.873 33.5362 564.189C32.4656 563.09 32.9247 561.249 34.3857 560.782C35.2951 560.491 35.8863 559.614 35.8155 558.662C35.7016 557.132 37.2367 556.017 38.6564 556.598C39.5401 556.96 40.5565 556.668 41.1142 555.893C42.0103 554.648 43.9032 554.781 44.6173 556.138C45.0618 556.983 46.0277 557.413 46.9531 557.178C48.4398 556.8 49.8048 558.118 49.4791 559.617C49.2764 560.551 49.7399 561.501 50.5999 561.916C51.9817 562.582 52.1801 564.469 50.967 565.408C50.212 565.992 49.9562 567.018 50.3485 567.889C50.9787 569.287 49.9176 570.861 48.3848 570.8C47.4307 570.763 46.5753 571.384 46.3163 572.303C45.9001 573.779 44.0761 574.302 42.9407 573.271C42.234 572.629 41.1792 572.555 40.3901 573.093C39.1222 573.956 37.3887 573.184 37.1821 571.664C37.0534 570.718 36.2928 569.984 35.3428 569.888Z" fill="#52F7C5"/>
<path d="M236.261 629.064C235.449 628.138 235.895 626.682 237.085 626.369C237.826 626.174 238.337 625.496 238.32 624.73C238.293 623.499 239.571 622.669 240.684 623.194C241.377 623.521 242.204 623.331 242.684 622.733C243.454 621.773 244.966 621.958 245.481 623.076C245.802 623.772 246.558 624.158 247.31 624.008C248.517 623.768 249.556 624.881 249.232 626.069C249.03 626.809 249.362 627.59 250.034 627.958C251.113 628.55 251.193 630.071 250.181 630.773C249.552 631.21 249.304 632.021 249.581 632.736C250.028 633.883 249.111 635.099 247.885 634.987C247.122 634.916 246.41 635.379 246.164 636.104C245.768 637.27 244.284 637.613 243.418 636.738C242.878 636.194 242.036 636.091 241.381 636.488C240.328 637.127 238.971 636.436 238.869 635.209C238.806 634.445 238.227 633.824 237.47 633.708C236.253 633.521 235.658 632.119 236.369 631.113C236.811 630.487 236.767 629.64 236.261 629.064Z" fill="#52F7C5"/>
<path d="M659.15 380.587C660.917 379.791 662.904 381.131 662.828 383.067C662.78 384.272 663.565 385.353 664.726 385.68C666.591 386.206 667.252 388.51 665.949 389.944C665.138 390.837 665.044 392.169 665.723 393.166C666.814 394.767 665.839 396.957 663.919 397.218C662.724 397.381 661.796 398.341 661.676 399.541C661.482 401.469 659.328 402.52 657.689 401.486C656.669 400.842 655.341 400.982 654.477 401.823C653.089 403.176 650.763 402.596 650.173 400.75C649.805 399.602 648.698 398.855 647.495 398.944C645.563 399.088 644.154 397.149 644.888 395.356C645.345 394.24 644.977 392.956 643.998 392.251C642.425 391.119 642.592 388.728 644.307 387.826C645.375 387.265 645.918 386.045 645.621 384.876C645.144 382.998 646.809 381.274 648.702 381.685C649.881 381.941 651.081 381.356 651.605 380.269C652.447 378.524 654.83 378.273 656.017 379.805C656.755 380.759 658.051 381.082 659.15 380.587Z" fill="#52F7C5"/>
<path d="M632.545 607.218C631.555 606.452 631.717 604.912 632.844 604.369C633.546 604.031 633.924 603.255 633.759 602.494C633.493 601.271 634.607 600.196 635.819 600.504C636.574 600.696 637.362 600.345 637.725 599.656C638.307 598.548 639.852 598.44 640.583 599.456C641.038 600.088 641.867 600.326 642.588 600.031C643.746 599.557 644.998 600.467 644.905 601.715C644.847 602.491 645.33 603.206 646.072 603.444C647.264 603.825 647.638 605.327 646.765 606.224C646.221 606.781 646.131 607.639 646.547 608.298C647.215 609.356 646.536 610.747 645.291 610.873C644.516 610.951 643.895 611.55 643.79 612.322C643.622 613.562 642.208 614.191 641.173 613.487C640.53 613.048 639.669 613.109 639.093 613.632C638.166 614.474 636.678 614.047 636.339 612.843C636.128 612.093 635.43 611.586 634.651 611.617C633.401 611.666 632.535 610.383 633.049 609.242C633.369 608.532 633.161 607.695 632.545 607.218Z" fill="#52F7C5"/>
<path d="M880.906 705.123C879.965 704.123 880.405 702.483 881.719 702.088C882.537 701.842 883.08 701.067 883.031 700.214C882.953 698.843 884.344 697.87 885.605 698.412C886.39 698.749 887.304 698.504 887.815 697.82C888.636 696.72 890.327 696.868 890.945 698.093C891.329 698.856 892.187 699.256 893.018 699.06C894.354 698.745 895.555 699.946 895.24 701.282C895.044 702.113 895.444 702.971 896.207 703.355C897.432 703.973 897.58 705.664 896.481 706.485C895.796 706.996 895.551 707.91 895.888 708.695C896.43 709.956 895.457 711.347 894.086 711.269C893.233 711.22 892.458 711.763 892.212 712.581C891.817 713.895 890.177 714.335 889.177 713.394C888.555 712.809 887.613 712.726 886.898 713.195C885.751 713.947 884.212 713.23 884.051 711.867C883.951 711.018 883.282 710.349 882.433 710.249C881.07 710.088 880.353 708.549 881.105 707.402C881.574 706.687 881.491 705.745 880.906 705.123Z" fill="#52F7C5"/>
<path d="M68.2159 575.079C66.7932 573.619 67.4032 571.172 69.3449 570.551C70.5534 570.164 71.3391 568.999 71.2449 567.734C71.0936 565.701 73.1337 564.219 75.0204 564.991C76.1948 565.472 77.5455 565.084 78.2867 564.054C79.4776 562.4 81.9931 562.576 82.9421 564.38C83.5328 565.503 84.8164 566.074 86.0462 565.762C88.022 565.26 89.836 567.012 89.4032 569.004C89.1338 570.244 89.7498 571.507 90.8927 572.058C92.729 572.943 92.9926 575.451 91.3805 576.699C90.3772 577.476 90.0372 578.839 90.5585 579.996C91.396 581.855 89.9859 583.945 87.9489 583.865C86.681 583.815 85.5442 584.641 85.2 585.862C84.6468 587.824 82.2228 588.519 80.714 587.148C79.7748 586.295 78.3731 586.197 77.3244 586.911C75.6394 588.059 73.3357 587.033 73.0611 585.013C72.8901 583.756 71.8793 582.78 70.6168 582.653C68.5884 582.449 67.483 580.182 68.571 578.458C69.2483 577.385 69.1014 575.988 68.2159 575.079Z" fill="#52F7C5"/>
<path d="M312.649 476.317C311.712 477.263 310.106 476.893 309.678 475.631C309.412 474.846 308.642 474.346 307.816 474.422C306.489 474.544 305.498 473.228 305.981 471.986C306.281 471.213 306.013 470.335 305.331 469.863C304.237 469.104 304.323 467.458 305.491 466.817C306.218 466.419 306.577 465.574 306.359 464.774C306.008 463.488 307.132 462.283 308.438 462.543C309.252 462.705 310.07 462.288 310.417 461.535C310.974 460.325 312.61 460.125 313.444 461.164C313.963 461.81 314.857 462.017 315.607 461.663C316.812 461.095 318.194 461.992 318.165 463.324C318.146 464.153 318.699 464.886 319.501 465.097C320.789 465.436 321.271 467.012 320.393 468.014C319.846 468.637 319.798 469.554 320.276 470.231C321.045 471.319 320.401 472.836 319.085 473.038C318.265 473.164 317.639 473.836 317.57 474.662C317.46 475.99 315.992 476.738 314.853 476.046C314.144 475.616 313.233 475.728 312.649 476.317Z" fill="#52F7C5"/>
<path d="M532.106 435.848C532.548 434.379 534.38 433.888 535.498 434.939C536.193 435.593 537.246 435.685 538.045 435.162C539.328 434.321 541.047 435.123 541.227 436.646C541.34 437.594 542.087 438.342 543.035 438.454C544.559 438.634 545.361 440.354 544.519 441.636C543.996 442.435 544.088 443.488 544.742 444.184C545.793 445.301 545.302 447.134 543.833 447.576C542.919 447.851 542.313 448.717 542.367 449.67C542.454 451.202 540.9 452.29 539.49 451.684C538.613 451.307 537.592 451.581 537.021 452.346C536.103 453.575 534.213 453.41 533.522 452.04C533.093 451.187 532.134 450.74 531.205 450.959C529.712 451.311 528.37 449.969 528.722 448.476C528.941 447.547 528.494 446.589 527.641 446.159C526.271 445.469 526.106 443.578 527.335 442.661C528.1 442.089 528.374 441.068 527.997 440.191C527.391 438.782 528.48 437.227 530.011 437.314C530.965 437.369 531.831 436.762 532.106 435.848Z" fill="#52F7C5"/>
<path d="M741.636 554.508C743.486 555.209 743.953 557.611 742.5 558.953C741.596 559.789 741.383 561.135 741.984 562.21C742.951 563.935 741.765 566.075 739.789 566.17C738.559 566.229 737.53 567.123 737.301 568.333C736.932 570.276 734.648 571.153 733.073 569.956C732.093 569.21 730.73 569.234 729.777 570.013C728.245 571.265 725.932 570.469 725.495 568.539C725.224 567.338 724.164 566.48 722.933 566.464C720.955 566.439 719.695 564.341 720.601 562.583C721.165 561.488 720.905 560.15 719.972 559.346C718.473 558.055 718.856 555.639 720.68 554.874C721.816 554.398 722.477 553.206 722.279 551.991C721.961 550.038 723.807 548.433 725.696 549.02C726.872 549.385 728.145 548.896 728.774 547.838C729.785 546.138 732.232 546.095 733.302 547.759C733.968 548.795 735.257 549.239 736.419 548.833C738.286 548.18 740.188 549.72 739.938 551.682C739.782 552.904 740.485 554.072 741.636 554.508Z" fill="#52F7C5"/>
<path d="M906.454 772.041C904.857 770.617 905.317 768.01 907.304 767.218C908.541 766.724 909.279 765.447 909.087 764.129C908.78 762.012 910.807 760.311 912.839 760.981C914.104 761.398 915.49 760.894 916.19 759.761C917.316 757.942 919.962 757.942 921.088 759.761C921.789 760.894 923.174 761.398 924.439 760.981C926.471 760.311 928.498 762.012 928.191 764.129C928 765.447 928.737 766.724 929.974 767.218C931.961 768.01 932.421 770.617 930.825 772.041C929.831 772.928 929.575 774.38 930.205 775.553C931.218 777.438 929.895 779.729 927.757 779.795C926.425 779.835 925.296 780.783 925.025 782.087C924.589 784.182 922.102 785.087 920.422 783.762C919.377 782.937 917.902 782.937 916.856 783.762C915.176 785.087 912.689 784.182 912.254 782.087C911.983 780.783 910.853 779.835 909.522 779.795C907.383 779.729 906.06 777.438 907.073 775.553C907.704 774.38 907.448 772.928 906.454 772.041Z" fill="#52F7C5"/>
</g>
<g opacity="0.95" filter="url(#filter1_if_113_1750)">
<path d="M1830.26 625.509C1830.91 627.251 1829.49 629.061 1827.65 628.859C1826.5 628.733 1825.41 629.411 1825.02 630.499C1824.4 632.247 1822.15 632.724 1820.86 631.383C1820.07 630.548 1818.8 630.37 1817.8 630.952C1816.2 631.888 1814.17 630.809 1814.05 628.956C1813.97 627.803 1813.11 626.852 1811.98 626.656C1810.15 626.342 1809.28 624.212 1810.38 622.715C1811.07 621.783 1811.02 620.504 1810.28 619.622C1809.08 618.205 1809.78 616.02 1811.59 615.579C1812.71 615.304 1813.5 614.296 1813.49 613.14C1813.49 611.283 1815.43 610.066 1817.1 610.887C1818.14 611.399 1819.39 611.132 1820.13 610.244C1821.31 608.816 1823.59 609.135 1824.34 610.835C1824.8 611.893 1825.93 612.494 1827.07 612.288C1828.9 611.958 1830.43 613.665 1829.91 615.447C1829.59 616.557 1830.07 617.744 1831.07 618.317C1832.69 619.238 1832.77 621.534 1831.22 622.565C1830.26 623.207 1829.86 624.425 1830.26 625.509Z" fill="#52F7C5"/>
<path d="M1682.76 764.657C1683.32 763.013 1685.41 762.53 1686.63 763.763C1687.39 764.53 1688.58 764.676 1689.5 764.115C1690.98 763.215 1692.9 764.19 1693.04 765.919C1693.13 766.996 1693.95 767.871 1695.01 768.035C1696.73 768.299 1697.57 770.276 1696.57 771.693C1695.94 772.576 1696.01 773.77 1696.72 774.583C1697.86 775.888 1697.24 777.941 1695.56 778.383C1694.51 778.658 1693.79 779.613 1693.82 780.693C1693.85 782.429 1692.05 783.598 1690.48 782.857C1689.51 782.396 1688.34 782.666 1687.66 783.508C1686.58 784.862 1684.45 784.601 1683.72 783.024C1683.27 782.043 1682.2 781.5 1681.14 781.711C1679.44 782.049 1677.98 780.479 1678.43 778.804C1678.72 777.762 1678.25 776.661 1677.3 776.141C1675.78 775.306 1675.67 773.162 1677.09 772.173C1677.98 771.557 1678.33 770.413 1677.94 769.406C1677.31 767.788 1678.6 766.074 1680.33 766.233C1681.41 766.332 1682.41 765.68 1682.76 764.657Z" fill="#52F7C5"/>
<path d="M1466.38 735.2C1465.99 733.863 1467.14 732.582 1468.51 732.83C1469.36 732.985 1470.21 732.534 1470.56 731.741C1471.12 730.466 1472.82 730.226 1473.72 731.297C1474.27 731.963 1475.21 732.163 1475.99 731.78C1477.23 731.163 1478.7 732.076 1478.69 733.469C1478.69 734.336 1479.28 735.092 1480.12 735.298C1481.47 735.629 1482 737.268 1481.1 738.33C1480.54 738.992 1480.51 739.951 1481.02 740.65C1481.85 741.773 1481.2 743.371 1479.83 743.606C1478.97 743.753 1478.33 744.466 1478.28 745.331C1478.18 746.721 1476.66 747.53 1475.46 746.828C1474.71 746.391 1473.76 746.525 1473.16 747.151C1472.2 748.157 1470.51 747.799 1470.04 746.488C1469.75 745.673 1468.94 745.164 1468.07 745.258C1466.69 745.41 1465.63 744.053 1466.11 742.746C1466.41 741.933 1466.12 741.02 1465.39 740.538C1464.24 739.765 1464.3 738.043 1465.51 737.352C1466.26 736.922 1466.62 736.032 1466.38 735.2Z" fill="#52F7C5"/>
<path d="M1416.97 773.906C1417.37 775.885 1415.54 777.588 1413.59 777.057C1412.38 776.726 1411.1 777.27 1410.5 778.371C1409.53 780.141 1407.03 780.272 1405.88 778.613C1405.17 777.581 1403.84 777.174 1402.67 777.63C1400.79 778.361 1398.79 776.859 1398.98 774.849C1399.09 773.598 1398.33 772.431 1397.14 772.027C1395.23 771.379 1394.67 768.946 1396.1 767.525C1397 766.641 1397.17 765.26 1396.51 764.186C1395.47 762.461 1396.6 760.236 1398.61 760.069C1399.86 759.965 1400.88 759.016 1401.07 757.775C1401.38 755.78 1403.68 754.804 1405.33 755.969C1406.35 756.695 1407.74 756.622 1408.69 755.793C1410.2 754.462 1412.59 755.192 1413.1 757.144C1413.42 758.359 1414.54 759.196 1415.79 759.169C1417.81 759.125 1419.17 761.218 1418.31 763.044C1417.77 764.18 1418.08 765.536 1419.06 766.322C1420.64 767.585 1420.33 770.063 1418.5 770.908C1417.36 771.434 1416.73 772.674 1416.97 773.906Z" fill="#52F7C5"/>
<path d="M1187.97 669.113C1186.18 670.525 1183.53 669.56 1183.06 667.327C1182.77 665.937 1181.57 664.927 1180.15 664.883C1177.87 664.814 1176.46 662.371 1177.54 660.362C1178.21 659.111 1177.94 657.563 1176.88 656.618C1175.18 655.099 1175.67 652.321 1177.79 651.476C1179.11 650.95 1179.89 649.589 1179.69 648.184C1179.36 645.926 1181.52 644.113 1183.69 644.827C1185.04 645.272 1186.51 644.735 1187.26 643.527C1188.46 641.588 1191.28 641.588 1192.48 643.527C1193.23 644.735 1194.71 645.272 1196.05 644.827C1198.22 644.113 1200.38 645.926 1200.05 648.184C1199.85 649.589 1200.64 650.95 1201.95 651.476C1204.07 652.321 1204.56 655.099 1202.86 656.618C1201.8 657.563 1201.53 659.111 1202.2 660.362C1203.28 662.371 1201.87 664.814 1199.59 664.883C1198.17 664.927 1196.97 665.937 1196.68 667.327C1196.21 669.56 1193.56 670.525 1191.77 669.113C1190.66 668.234 1189.08 668.234 1187.97 669.113Z" fill="#52F7C5"/>
<path d="M1771.47 460.158C1770.67 458.781 1771.59 457.039 1773.18 456.935C1774.17 456.87 1774.99 456.135 1775.16 455.157C1775.43 453.585 1777.26 452.846 1778.54 453.789C1779.34 454.376 1780.44 454.338 1781.2 453.697C1782.42 452.666 1784.29 453.276 1784.67 454.825C1784.91 455.789 1785.77 456.465 1786.77 456.461C1788.36 456.454 1789.41 458.126 1788.7 459.556C1788.26 460.447 1788.49 461.522 1789.25 462.156C1790.48 463.176 1790.2 465.129 1788.75 465.771C1787.84 466.171 1787.32 467.141 1787.5 468.118C1787.78 469.687 1786.32 471.006 1784.78 470.56C1783.83 470.282 1782.81 470.694 1782.32 471.556C1781.53 472.94 1779.56 473.009 1778.67 471.683C1778.12 470.858 1777.08 470.518 1776.14 470.862C1774.65 471.414 1773.09 470.199 1773.27 468.614C1773.38 467.628 1772.79 466.696 1771.86 466.361C1770.36 465.822 1769.95 463.893 1771.1 462.79C1771.82 462.104 1771.97 461.015 1771.47 460.158Z" fill="#52F7C5"/>
<path d="M1707.82 557.403C1709.67 557.688 1710.58 559.825 1709.49 561.358C1708.82 562.312 1708.89 563.604 1709.66 564.483C1710.9 565.894 1710.22 568.114 1708.4 568.592C1707.27 568.889 1706.49 569.923 1706.52 571.091C1706.56 572.968 1704.61 574.232 1702.92 573.431C1701.86 572.933 1700.6 573.224 1699.87 574.135C1698.69 575.599 1696.39 575.316 1695.6 573.611C1695.11 572.55 1693.96 571.963 1692.81 572.191C1690.97 572.557 1689.39 570.859 1689.88 569.048C1690.19 567.921 1689.69 566.73 1688.66 566.168C1687.02 565.265 1686.89 562.947 1688.44 561.877C1689.4 561.211 1689.77 559.974 1689.35 558.885C1688.67 557.135 1690.07 555.281 1691.94 555.453C1693.1 555.56 1694.19 554.855 1694.56 553.749C1695.16 551.971 1697.43 551.449 1698.75 552.782C1699.57 553.612 1700.85 553.77 1701.85 553.164C1703.46 552.19 1705.53 553.244 1705.68 555.115C1705.78 556.279 1706.66 557.225 1707.82 557.403Z" fill="#52F7C5"/>
<path d="M1445.23 511.915C1445.67 513.043 1444.77 514.24 1443.56 514.129C1442.81 514.06 1442.11 514.514 1441.87 515.228C1441.48 516.375 1440.02 516.712 1439.17 515.852C1438.64 515.316 1437.81 515.215 1437.16 515.606C1436.13 516.234 1434.79 515.554 1434.69 514.347C1434.63 513.596 1434.06 512.986 1433.32 512.871C1432.12 512.687 1431.53 511.308 1432.23 510.319C1432.67 509.703 1432.63 508.87 1432.13 508.303C1431.33 507.393 1431.77 505.96 1432.94 505.652C1433.67 505.46 1434.17 504.794 1434.15 504.04C1434.13 502.829 1435.38 502.013 1436.48 502.53C1437.16 502.852 1437.97 502.664 1438.45 502.076C1439.2 501.131 1440.69 501.314 1441.2 502.414C1441.51 503.098 1442.26 503.477 1443 503.33C1444.18 503.094 1445.2 504.189 1444.89 505.358C1444.69 506.085 1445.01 506.853 1445.67 507.216C1446.74 507.798 1446.82 509.294 1445.82 509.984C1445.2 510.414 1444.96 511.212 1445.23 511.915Z" fill="#52F7C5"/>
<path d="M1377.76 549.695C1376.77 547.846 1378.07 545.597 1380.17 545.534C1381.47 545.494 1382.58 544.564 1382.85 543.285C1383.27 541.229 1385.71 540.341 1387.36 541.641C1388.39 542.45 1389.83 542.45 1390.86 541.641C1392.51 540.341 1394.95 541.229 1395.38 543.285C1395.64 544.564 1396.75 545.494 1398.06 545.534C1400.15 545.597 1401.45 547.846 1400.46 549.695C1399.84 550.846 1400.09 552.271 1401.07 553.141C1402.63 554.538 1402.18 557.096 1400.23 557.873C1399.02 558.357 1398.3 559.61 1398.48 560.903C1398.78 562.981 1396.8 564.65 1394.8 563.992C1393.56 563.583 1392.2 564.078 1391.51 565.189C1390.41 566.974 1387.81 566.974 1386.71 565.189C1386.02 564.078 1384.66 563.583 1383.42 563.992C1381.43 564.65 1379.44 562.981 1379.74 560.903C1379.93 559.61 1379.2 558.357 1377.99 557.873C1376.04 557.096 1375.59 554.538 1377.16 553.141C1378.13 552.271 1378.38 550.846 1377.76 549.695Z" fill="#52F7C5"/>
<path d="M1049.49 508.149C1047.89 509.371 1045.56 508.476 1045.18 506.493C1044.95 505.258 1043.9 504.346 1042.64 504.286C1040.62 504.189 1039.41 502.005 1040.4 500.244C1041.01 499.148 1040.8 497.774 1039.87 496.921C1038.39 495.552 1038.87 493.101 1040.76 492.386C1041.93 491.941 1042.65 490.748 1042.49 489.502C1042.23 487.5 1044.17 485.929 1046.08 486.594C1047.27 487.009 1048.58 486.556 1049.26 485.499C1050.35 483.801 1052.85 483.845 1053.88 485.58C1054.52 486.659 1055.82 487.158 1057.02 486.785C1058.95 486.186 1060.83 487.824 1060.51 489.817C1060.31 491.057 1060.98 492.273 1062.14 492.759C1064 493.539 1064.39 496.005 1062.86 497.323C1061.91 498.143 1061.64 499.508 1062.22 500.625C1063.14 502.419 1061.86 504.56 1059.84 504.586C1058.58 504.602 1057.5 505.478 1057.23 506.703C1056.78 508.672 1054.42 509.485 1052.86 508.207C1051.88 507.412 1050.49 507.388 1049.49 508.149Z" fill="#52F7C5"/>
<path d="M1849.58 310.479C1848.36 311.509 1846.49 310.9 1846.11 309.351C1845.87 308.387 1845.01 307.71 1844.01 307.715C1842.42 307.722 1841.37 306.049 1842.08 304.619C1842.52 303.729 1842.29 302.654 1841.53 302.019C1840.3 301 1840.57 299.047 1842.03 298.405C1842.94 298.005 1843.46 297.035 1843.28 296.058C1843 294.489 1844.46 293.169 1845.99 293.615C1846.95 293.893 1847.97 293.482 1848.46 292.62C1849.25 291.235 1851.22 291.167 1852.11 292.492C1852.66 293.318 1853.7 293.657 1854.63 293.314C1856.13 292.762 1857.68 293.976 1857.51 295.561C1857.4 296.548 1857.99 297.48 1858.92 297.815C1860.42 298.354 1860.83 300.283 1859.68 301.385C1858.96 302.072 1858.81 303.16 1859.31 304.017C1860.11 305.395 1859.19 307.136 1857.59 307.24C1856.6 307.305 1855.79 308.041 1855.62 309.019C1855.35 310.59 1853.52 311.329 1852.24 310.386C1851.43 309.799 1850.34 309.837 1849.58 310.479Z" fill="#52F7C5"/>
<path d="M1833.79 239.894C1832.76 238.759 1833.28 236.935 1834.76 236.519C1835.68 236.26 1836.3 235.404 1836.26 234.45C1836.2 232.917 1837.77 231.856 1839.17 232.486C1840.04 232.879 1841.07 232.623 1841.65 231.868C1842.59 230.655 1844.48 230.853 1845.14 232.235C1845.56 233.095 1846.51 233.558 1847.44 233.356C1848.94 233.03 1850.26 234.395 1849.88 235.882C1849.65 236.807 1850.08 237.773 1850.92 238.218C1852.28 238.932 1852.41 240.825 1851.17 241.721C1850.39 242.278 1850.1 243.295 1850.46 244.178C1851.04 245.598 1849.93 247.133 1848.4 247.019C1847.44 246.949 1846.57 247.54 1846.28 248.449C1845.81 249.91 1843.97 250.369 1842.87 249.299C1842.19 248.632 1841.13 248.522 1840.33 249.031C1839.03 249.85 1837.32 249.018 1837.17 247.492C1837.08 246.542 1836.34 245.781 1835.39 245.653C1833.87 245.446 1833.1 243.713 1833.97 242.445C1834.5 241.656 1834.43 240.601 1833.79 239.894Z" fill="#52F7C5"/>
<path d="M1569.78 261.008C1571.43 261.116 1572.4 262.923 1571.56 264.353C1571.04 265.243 1571.2 266.373 1571.95 267.085C1573.14 268.229 1572.72 270.232 1571.16 270.791C1570.19 271.139 1569.58 272.106 1569.7 273.13C1569.88 274.776 1568.26 276.036 1566.71 275.463C1565.74 275.106 1564.66 275.459 1564.09 276.316C1563.17 277.692 1561.12 277.62 1560.3 276.183C1559.79 275.289 1558.73 274.862 1557.74 275.15C1556.15 275.613 1554.63 274.243 1554.93 272.615C1555.11 271.601 1554.57 270.594 1553.63 270.179C1552.12 269.512 1551.83 267.485 1553.1 266.427C1553.9 265.768 1554.13 264.652 1553.68 263.729C1552.95 262.244 1554.03 260.508 1555.69 260.515C1556.72 260.52 1557.61 259.818 1557.86 258.817C1558.25 257.209 1560.2 256.577 1561.46 257.646C1562.25 258.312 1563.39 258.352 1564.22 257.742C1565.55 256.764 1567.45 257.531 1567.73 259.162C1567.91 260.177 1568.75 260.94 1569.78 261.008Z" fill="#52F7C5"/>
<path d="M1243.34 421.062C1244.49 423.032 1243.17 425.523 1240.89 425.672C1239.48 425.765 1238.31 426.817 1238.07 428.216C1237.68 430.464 1235.07 431.521 1233.23 430.172C1232.08 429.332 1230.51 429.387 1229.43 430.305C1227.69 431.779 1225 430.907 1224.46 428.691C1224.12 427.312 1222.89 426.344 1221.47 426.351C1219.18 426.361 1217.69 423.968 1218.7 421.923C1219.33 420.65 1219 419.112 1217.91 418.204C1216.15 416.746 1216.55 413.952 1218.64 413.034C1219.93 412.462 1220.67 411.074 1220.42 409.677C1220.01 407.433 1222.11 405.545 1224.3 406.184C1225.66 406.581 1227.12 405.992 1227.82 404.76C1228.96 402.779 1231.78 402.681 1233.04 404.577C1233.83 405.758 1235.33 406.244 1236.66 405.752C1238.8 404.962 1241.02 406.699 1240.77 408.967C1240.62 410.378 1241.45 411.711 1242.79 412.191C1244.93 412.961 1245.52 415.721 1243.87 417.298C1242.85 418.279 1242.63 419.836 1243.34 421.062Z" fill="#52F7C5"/>
<path d="M1061.35 221.966C1060.44 221.027 1060.83 219.452 1062.08 219.052C1062.86 218.803 1063.36 218.054 1063.3 217.239C1063.2 215.931 1064.52 214.977 1065.73 215.474C1066.49 215.783 1067.36 215.534 1067.83 214.871C1068.6 213.806 1070.22 213.92 1070.83 215.081C1071.21 215.803 1072.04 216.171 1072.83 215.97C1074.1 215.647 1075.27 216.774 1074.99 218.057C1074.81 218.854 1075.21 219.667 1075.95 220.022C1077.13 220.592 1077.3 222.206 1076.26 223.009C1075.61 223.509 1075.4 224.386 1075.73 225.131C1076.27 226.327 1075.36 227.672 1074.05 227.621C1073.24 227.588 1072.5 228.12 1072.28 228.906C1071.93 230.169 1070.37 230.616 1069.4 229.734C1068.79 229.185 1067.89 229.122 1067.21 229.581C1066.13 230.32 1064.65 229.66 1064.47 228.36C1064.36 227.55 1063.71 226.922 1062.9 226.841C1061.59 226.709 1060.88 225.251 1061.58 224.141C1062.02 223.451 1061.92 222.551 1061.35 221.966Z" fill="#52F7C5"/>
<path d="M1980.88 214.495C1982.4 214.648 1983.24 216.354 1982.42 217.651C1981.91 218.458 1982.02 219.51 1982.69 220.194C1983.76 221.292 1983.3 223.134 1981.84 223.601C1980.93 223.892 1980.33 224.769 1980.41 225.721C1980.52 227.251 1978.98 228.366 1977.56 227.785C1976.68 227.423 1975.66 227.715 1975.11 228.49C1974.21 229.735 1972.32 229.602 1971.6 228.245C1971.16 227.4 1970.19 226.97 1969.27 227.205C1967.78 227.583 1966.42 226.264 1966.74 224.765C1966.94 223.832 1966.48 222.882 1965.62 222.467C1964.24 221.801 1964.04 219.914 1965.25 218.975C1966.01 218.39 1966.27 217.365 1965.87 216.494C1965.24 215.095 1966.3 213.522 1967.84 213.583C1968.79 213.62 1969.65 212.999 1969.9 212.08C1970.32 210.603 1972.15 210.08 1973.28 211.112C1973.99 211.754 1975.04 211.828 1975.83 211.29C1977.1 210.427 1978.83 211.199 1979.04 212.719C1979.17 213.665 1979.93 214.399 1980.88 214.495Z" fill="#52F7C5"/>
<path d="M1779.96 155.319C1780.77 156.245 1780.33 157.701 1779.14 158.014C1778.39 158.209 1777.88 158.887 1777.9 159.653C1777.93 160.884 1776.65 161.714 1775.54 161.188C1774.84 160.861 1774.02 161.052 1773.54 161.65C1772.77 162.61 1771.26 162.425 1770.74 161.306C1770.42 160.61 1769.66 160.225 1768.91 160.375C1767.7 160.615 1766.67 159.501 1766.99 158.313C1767.19 157.574 1766.86 156.793 1766.19 156.424C1765.11 155.832 1765.03 154.311 1766.04 153.61C1766.67 153.173 1766.92 152.361 1766.64 151.647C1766.19 150.5 1767.11 149.283 1768.34 149.396C1769.1 149.466 1769.81 149.004 1770.06 148.279C1770.45 147.113 1771.94 146.77 1772.8 147.644C1773.34 148.189 1774.19 148.292 1774.84 147.895C1775.89 147.256 1777.25 147.947 1777.35 149.174C1777.42 149.938 1777.99 150.559 1778.75 150.675C1779.97 150.862 1780.56 152.264 1779.85 153.27C1779.41 153.895 1779.45 154.743 1779.96 155.319Z" fill="#52F7C5"/>
<path d="M1357.07 403.796C1355.3 404.592 1353.32 403.252 1353.39 401.316C1353.44 400.11 1352.66 399.03 1351.5 398.703C1349.63 398.177 1348.97 395.873 1350.27 394.439C1351.08 393.546 1351.18 392.214 1350.5 391.217C1349.41 389.615 1350.38 387.426 1352.3 387.165C1353.5 387.002 1354.42 386.042 1354.55 384.841C1354.74 382.914 1356.89 381.863 1358.53 382.897C1359.55 383.541 1360.88 383.401 1361.74 382.559C1363.13 381.207 1365.46 381.787 1366.05 383.633C1366.42 384.781 1367.52 385.528 1368.73 385.439C1370.66 385.295 1372.07 387.234 1371.33 389.027C1370.88 390.143 1371.24 391.427 1372.22 392.132C1373.8 393.264 1373.63 395.655 1371.91 396.557C1370.85 397.118 1370.3 398.338 1370.6 399.507C1371.08 401.385 1369.41 403.109 1367.52 402.698C1366.34 402.442 1365.14 403.027 1364.62 404.114C1363.77 405.859 1361.39 406.11 1360.2 404.577C1359.47 403.624 1358.17 403.3 1357.07 403.796Z" fill="#52F7C5"/>
<path d="M1383.68 177.165C1384.67 177.931 1384.5 179.47 1383.38 180.014C1382.68 180.352 1382.3 181.128 1382.46 181.889C1382.73 183.112 1381.61 184.187 1380.4 183.879C1379.65 183.687 1378.86 184.038 1378.5 184.727C1377.91 185.835 1376.37 185.943 1375.64 184.927C1375.18 184.295 1374.35 184.057 1373.63 184.352C1372.48 184.826 1371.22 183.916 1371.32 182.668C1371.37 181.891 1370.89 181.176 1370.15 180.939C1368.96 180.558 1368.58 179.056 1369.46 178.159C1370 177.601 1370.09 176.744 1369.67 176.085C1369.01 175.027 1369.69 173.635 1370.93 173.51C1371.71 173.432 1372.33 172.833 1372.43 172.061C1372.6 170.821 1374.01 170.191 1375.05 170.896C1375.69 171.334 1376.55 171.274 1377.13 170.75C1378.05 169.909 1379.54 170.336 1379.88 171.54C1380.09 172.29 1380.79 172.797 1381.57 172.766C1382.82 172.717 1383.69 174 1383.17 175.141C1382.85 175.851 1383.06 176.688 1383.68 177.165Z" fill="#52F7C5"/>
<path d="M1135.32 79.2602C1136.26 80.2598 1135.82 81.8997 1134.5 82.2951C1133.68 82.5412 1133.14 83.3162 1133.19 84.1691C1133.27 85.5394 1131.88 86.5132 1130.62 85.9713C1129.83 85.6339 1128.92 85.8787 1128.41 86.5633C1127.59 87.6631 1125.89 87.5152 1125.28 86.2895C1124.89 85.5266 1124.03 85.1267 1123.2 85.3226C1121.87 85.6374 1120.67 84.437 1120.98 83.101C1121.18 82.2694 1120.78 81.412 1120.01 81.0276C1118.79 80.41 1118.64 78.7187 1119.74 77.8976C1120.43 77.3865 1120.67 76.4727 1120.33 75.6879C1119.79 74.4269 1120.76 73.0361 1122.13 73.1141C1122.99 73.1626 1123.76 72.62 1124.01 71.8019C1124.4 70.4876 1126.04 70.0482 1127.04 70.9887C1127.67 71.5742 1128.61 71.6566 1129.32 71.1881C1130.47 70.4354 1132.01 71.1529 1132.17 72.5159C1132.27 73.3643 1132.94 74.0333 1133.79 74.1336C1135.15 74.2948 1135.87 75.8334 1135.12 76.9812C1134.65 77.6956 1134.73 78.638 1135.32 79.2602Z" fill="#52F7C5"/>
<path d="M1948.01 209.304C1949.43 210.764 1948.82 213.211 1946.88 213.832C1945.67 214.219 1944.88 215.383 1944.98 216.649C1945.13 218.682 1943.09 220.164 1941.2 219.392C1940.03 218.911 1938.68 219.299 1937.93 220.328C1936.74 221.983 1934.23 221.807 1933.28 220.003C1932.69 218.88 1931.4 218.308 1930.18 218.621C1928.2 219.123 1926.39 217.371 1926.82 215.379C1927.09 214.139 1926.47 212.876 1925.33 212.325C1923.49 211.44 1923.23 208.932 1924.84 207.684C1925.84 206.907 1926.18 205.544 1925.66 204.387C1924.83 202.528 1926.24 200.438 1928.27 200.518C1929.54 200.568 1930.68 199.742 1931.02 198.521C1931.57 196.559 1934 195.864 1935.51 197.234C1936.45 198.088 1937.85 198.186 1938.9 197.471C1940.58 196.324 1942.89 197.35 1943.16 199.37C1943.33 200.627 1944.34 201.603 1945.6 201.73C1947.63 201.934 1948.74 204.2 1947.65 205.924C1946.97 206.997 1947.12 208.395 1948.01 209.304Z" fill="#52F7C5"/>
<path d="M1703.57 308.066C1704.51 307.12 1706.12 307.49 1706.54 308.752C1706.81 309.537 1707.58 310.037 1708.41 309.961C1709.73 309.839 1710.72 311.155 1710.24 312.397C1709.94 313.169 1710.21 314.047 1710.89 314.52C1711.98 315.279 1711.9 316.925 1710.73 317.565C1710 317.964 1709.64 318.809 1709.86 319.609C1710.21 320.894 1709.09 322.1 1707.78 321.84C1706.97 321.678 1706.15 322.095 1705.8 322.848C1705.25 324.057 1703.61 324.258 1702.78 323.219C1702.26 322.573 1701.36 322.366 1700.61 322.72C1699.41 323.288 1698.03 322.391 1698.06 321.059C1698.07 320.23 1697.52 319.497 1696.72 319.286C1695.43 318.947 1694.95 317.371 1695.83 316.369C1696.38 315.746 1696.42 314.829 1695.94 314.152C1695.18 313.064 1695.82 311.547 1697.14 311.345C1697.96 311.219 1698.58 310.547 1698.65 309.721C1698.76 308.393 1700.23 307.645 1701.37 308.336C1702.08 308.767 1702.99 308.655 1703.57 308.066Z" fill="#52F7C5"/>
<path d="M1484.12 348.535C1483.67 350.004 1481.84 350.495 1480.72 349.444C1480.03 348.789 1478.97 348.697 1478.18 349.221C1476.89 350.062 1475.17 349.26 1474.99 347.737C1474.88 346.789 1474.13 346.041 1473.19 345.929C1471.66 345.749 1470.86 344.029 1471.7 342.746C1472.23 341.948 1472.13 340.895 1471.48 340.199C1470.43 339.082 1470.92 337.249 1472.39 336.807C1473.3 336.532 1473.91 335.666 1473.85 334.713C1473.77 333.181 1475.32 332.093 1476.73 332.699C1477.61 333.076 1478.63 332.802 1479.2 332.037C1480.12 330.808 1482.01 330.973 1482.7 332.343C1483.13 333.196 1484.09 333.642 1485.02 333.424C1486.51 333.072 1487.85 334.413 1487.5 335.907C1487.28 336.836 1487.73 337.794 1488.58 338.224C1489.95 338.914 1490.12 340.804 1488.89 341.722C1488.12 342.293 1487.85 343.315 1488.22 344.192C1488.83 345.601 1487.74 347.156 1486.21 347.068C1485.26 347.014 1484.39 347.621 1484.12 348.535Z" fill="#52F7C5"/>
<path d="M1274.59 229.875C1272.74 229.174 1272.27 226.772 1273.72 225.43C1274.63 224.594 1274.84 223.247 1274.24 222.173C1273.27 220.447 1274.46 218.307 1276.43 218.213C1277.66 218.154 1278.69 217.259 1278.92 216.05C1279.29 214.106 1281.57 213.229 1283.15 214.427C1284.13 215.172 1285.49 215.149 1286.44 214.37C1287.98 213.118 1290.29 213.914 1290.73 215.844C1291 217.045 1292.06 217.903 1293.29 217.919C1295.27 217.944 1296.53 220.042 1295.62 221.8C1295.06 222.894 1295.32 224.233 1296.25 225.036C1297.75 226.327 1297.37 228.744 1295.54 229.509C1294.41 229.985 1293.74 231.177 1293.94 232.392C1294.26 234.345 1292.41 235.95 1290.53 235.363C1289.35 234.998 1288.08 235.486 1287.45 236.545C1286.44 238.245 1283.99 238.287 1282.92 236.624C1282.25 235.588 1280.96 235.144 1279.8 235.55C1277.93 236.203 1276.03 234.663 1276.28 232.701C1276.44 231.479 1275.74 230.311 1274.59 229.875Z" fill="#52F7C5"/>
<path d="M1109.77 12.3418C1111.36 13.7663 1110.9 16.3726 1108.92 17.1652C1107.68 17.6586 1106.94 18.9357 1107.13 20.2535C1107.44 22.3709 1105.41 24.0721 1103.38 23.4018C1102.12 22.9846 1100.73 23.489 1100.03 24.6215C1098.91 26.441 1096.26 26.441 1095.13 24.6215C1094.43 23.489 1093.05 22.9846 1091.78 23.4018C1089.75 24.0721 1087.72 22.3709 1088.03 20.2535C1088.22 18.9357 1087.48 17.6586 1086.25 17.1652C1084.26 16.3726 1083.8 13.7663 1085.4 12.3418C1086.39 11.4551 1086.65 10.0029 1086.02 8.8299C1085 6.94531 1086.33 4.65332 1088.46 4.58826C1089.8 4.54773 1090.93 3.59985 1091.2 2.29602C1091.63 0.201233 1094.12 -0.703857 1095.8 0.620911C1096.84 1.4455 1098.32 1.4455 1099.37 0.620911C1101.05 -0.703857 1103.53 0.201233 1103.97 2.29602C1104.24 3.59985 1105.37 4.54773 1106.7 4.58826C1108.84 4.65332 1110.16 6.94531 1109.15 8.8299C1108.52 10.0029 1108.77 11.4551 1109.77 12.3418Z" fill="#52F7C5"/>
</g>
</g>
<defs>
<filter id="filter0_if_113_1750" x="24.9493" y="-8" width="960.272" height="800.383" filterUnits="userSpaceOnUse" color-interpolation-filters="sRGB">
<feFlood flood-opacity="0" result="BackgroundImageFix"/>
<feBlend mode="normal" in="SourceGraphic" in2="BackgroundImageFix" result="shape"/>
<feColorMatrix in="SourceAlpha" type="matrix" values="0 0 0 0 0 0 0 0 0 0 0 0 0 0 0 0 0 0 127 0" result="hardAlpha"/>
<feOffset/>
<feGaussianBlur stdDeviation="10"/>
<feComposite in2="hardAlpha" operator="arithmetic" k2="-1" k3="1"/>
<feColorMatrix type="matrix" values="0 0 0 0 1 0 0 0 0 1 0 0 0 0 1 0 0 0 1 0"/>
<feBlend mode="normal" in2="shape" result="effect1_innerShadow_113_1750"/>
<feGaussianBlur stdDeviation="4" result="effect2_foregroundBlur_113_1750"/>
</filter>
<filter id="filter1_if_113_1750" x="1031" y="-8" width="960.272" height="800.383" filterUnits="userSpaceOnUse" color-interpolation-filters="sRGB">
<feFlood flood-opacity="0" result="BackgroundImageFix"/>
<feBlend mode="normal" in="SourceGraphic" in2="BackgroundImageFix" result="shape"/>
<feColorMatrix in="SourceAlpha" type="matrix" values="0 0 0 0 0 0 0 0 0 0 0 0 0 0 0 0 0 0 127 0" result="hardAlpha"/>
<feOffset/>
<feGaussianBlur stdDeviation="10"/>
<feComposite in2="hardAlpha" operator="arithmetic" k2="-1" k3="1"/>
<feColorMatrix type="matrix" values="0 0 0 0 1 0 0 0 0 1 0 0 0 0 1 0 0 0 1 0"/>
<feBlend mode="normal" in2="shape" result="effect1_innerShadow_113_1750"/>
<feGaussianBlur stdDeviation="4" result="effect2_foregroundBlur_113_1750"/>
</filter>
<clipPath id="clip0_113_1750">
<rect width="1920" height="1080" fill="white"/>
</clipPath>
</defs>
</svg>
