<svg width="1072" height="532" viewBox="0 0 1072 532" fill="none" xmlns="http://www.w3.org/2000/svg">
<path d="M311.613 500.763C364.745 470.278 348.74 433.609 334.415 405.809C331.086 399.348 327.847 393.365 325.588 388.051C318.12 388.403 306.466 388.951 306.466 388.951L275.679 390.399L269.679 423.492C225 413.992 227.664 436.019 225.771 458.459V472.585C227.102 497.632 246.133 538.334 311.613 500.763Z" fill="#E9E2BD"/>
<path d="M269.679 423.492L275.679 390.399L225.771 392.748V458.459C227.664 436.019 225 413.992 269.679 423.492Z" fill="#E9E2BD"/>
<path d="M759.761 500.41C706.63 469.925 722.635 433.256 736.96 405.456C740.289 398.995 743.528 393.013 745.787 387.699C753.255 388.05 764.909 388.598 764.909 388.598L795.696 390.047L801.696 423.14C846.375 413.64 843.711 435.666 845.604 458.107V472.233C844.273 497.28 825.242 537.981 759.761 500.41Z" fill="#E9E2BD"/>
<path d="M801.696 423.14L795.696 390.047L845.604 392.395V458.107C843.711 435.666 846.375 413.64 801.696 423.14Z" fill="#E9E2BD"/>
<path d="M16.5718 179.199C30.6626 226.722 27.9799 299.708 20.9036 357.841C20.6441 361.326 20.8579 364.548 21.5051 367.526C22.7577 372.649 25.4114 377.363 28.8816 381.22C31.9165 384.389 35.7324 387.095 40.2027 389.394C46.5342 392.046 53.4113 392.16 59.1879 388.476C59.6149 388.203 60.0718 387.973 60.5549 387.821C138.476 363.284 209.203 344.037 275.679 329.966C460.813 290.777 612.972 291.729 795.696 330.342C862.31 344.419 932.986 363.501 1010.8 387.468C1011.3 387.621 1011.76 387.854 1012.2 388.132C1017.97 391.807 1024.85 391.691 1031.17 389.041C1035.64 386.742 1039.46 384.036 1042.49 380.867C1045.96 377.011 1048.62 372.297 1049.87 367.174C1050.52 364.197 1050.73 360.974 1050.47 357.488C1043.4 299.356 1040.71 226.369 1054.8 178.846C1058.37 166.807 1055.95 152.697 1046.67 146.329C1046.33 146.1 1045.97 145.927 1045.58 145.798C728.121 38.4326 362.553 31.1487 25.7845 146.151C25.4069 146.28 25.0429 146.452 24.7139 146.677C15.4305 153.044 13.0013 167.157 16.5718 179.199Z" fill="#E9E2BD"/>
<path d="M225.771 392.748L275.679 390.399L306.466 388.951L325.588 388.051L275.679 329.966C209.203 344.037 138.476 363.284 60.5549 387.821C60.0718 387.973 59.6149 388.203 59.1879 388.476C53.4113 392.16 46.5342 392.046 40.2027 389.394C79.9757 409.849 171.55 398.062 225.771 392.748Z" fill="#E9E2BD"/>
<path d="M795.696 390.047L845.604 392.395C899.825 397.71 991.399 409.496 1031.17 389.041C1024.85 391.691 1017.97 391.807 1012.2 388.132C1011.76 387.854 1011.3 387.621 1010.8 387.468C932.986 363.501 862.31 344.419 795.696 330.342L745.787 387.699L764.909 388.598L795.696 390.047Z" fill="#E9E2BD"/>
<path d="M325.588 388.051C318.12 388.403 306.466 388.951 306.466 388.951M325.588 388.051C327.847 393.365 331.086 399.348 334.415 405.809M325.588 388.051C306.097 365.367 275.679 329.966 275.679 329.966M325.588 388.051L306.466 388.951M325.588 388.051L275.679 329.966M225.771 472.585C227.102 497.632 246.133 538.334 311.613 500.763C364.745 470.278 348.74 433.609 334.415 405.809M225.771 472.585V458.459M225.771 472.585C225.418 468.16 225.364 463.275 225.771 458.459M275.679 390.399L269.679 423.492C225 413.992 227.664 436.019 225.771 458.459M275.679 390.399L225.771 392.748M275.679 390.399L306.466 388.951M20.9036 357.841C27.9799 299.708 30.6626 226.722 16.5718 179.199C13.0013 167.157 15.4305 153.044 24.7138 146.677C25.0429 146.452 25.4069 146.28 25.7845 146.151C362.553 31.1487 728.121 38.4326 1045.58 145.798C1045.97 145.927 1046.33 146.1 1046.67 146.329C1055.95 152.697 1058.37 166.807 1054.8 178.846C1040.71 226.369 1043.4 299.356 1050.47 357.488M20.9036 357.841C20.6441 361.326 20.8579 364.548 21.5051 367.526M20.9036 357.841C20.5004 361.153 20.7445 364.415 21.5051 367.526M225.771 392.748C171.55 398.062 79.9757 409.849 40.2027 389.394M225.771 392.748V458.459M40.2027 389.394C46.5342 392.046 53.4113 392.16 59.1879 388.476C59.6149 388.203 60.0718 387.973 60.5549 387.821C138.476 363.284 209.203 344.037 275.679 329.966M40.2027 389.394C35.7324 387.095 31.9165 384.389 28.8816 381.22M40.2027 389.394C36.0364 387.649 32.1064 384.804 28.8816 381.22M306.466 388.951C312.455 388.75 326.43 391.841 334.415 405.809M745.787 387.699C753.255 388.05 764.909 388.598 764.909 388.598M745.787 387.699C743.528 393.013 740.289 398.995 736.96 405.456M745.787 387.699C765.278 365.299 795.696 330.342 795.696 330.342M745.787 387.699L795.696 330.342M745.787 387.699L764.909 388.598M845.604 472.233C844.273 497.28 825.242 537.981 759.761 500.41C706.63 469.925 722.635 433.256 736.96 405.456M845.604 472.233V458.107M845.604 472.233C845.957 467.807 846.011 462.922 845.604 458.107M795.696 390.047L801.696 423.14C846.375 413.64 843.711 435.666 845.604 458.107M795.696 390.047L845.604 392.395M795.696 390.047L764.909 388.598M1050.47 357.488C1050.73 360.974 1050.52 364.197 1049.87 367.174M1050.47 357.488C1050.87 360.801 1050.63 364.063 1049.87 367.174M845.604 392.395C899.825 397.71 991.399 409.496 1031.17 389.041M845.604 392.395V458.107M1031.17 389.041C1024.85 391.691 1017.97 391.807 1012.2 388.132C1011.76 387.854 1011.3 387.621 1010.8 387.468C932.986 363.501 862.31 344.419 795.696 330.342M1031.17 389.041C1035.64 386.742 1039.46 384.036 1042.49 380.867M1031.17 389.041C1035.34 387.296 1039.27 384.452 1042.49 380.867M764.909 388.598C758.92 388.398 744.945 391.489 736.96 405.456M275.679 329.966C460.813 290.777 612.972 291.729 795.696 330.342M21.5051 367.526C22.7577 372.649 25.4114 377.363 28.8816 381.22M21.5051 367.526C22.6598 372.839 25.1943 377.37 28.8816 381.22M1042.49 380.867C1045.96 377.011 1048.62 372.297 1049.87 367.174M1042.49 380.867C1046.18 377.018 1048.71 372.487 1049.87 367.174" stroke="black" stroke-width="30" stroke-linecap="round"/>
<path d="M191.303 164.895C178.868 167.323 165.936 166.937 152.507 163.736C139.044 160.445 126.669 152.743 115.381 140.631C116.424 141.727 121.306 142.9 130.028 144.151C138.714 145.311 148.405 144.859 159.1 142.796C163.114 142.098 174.958 138.94 194.634 133.321C214.274 127.611 229.661 125.398 240.795 126.68C251.778 128.115 264.355 136.623 278.528 152.204C269.461 148.398 249.655 150.107 219.111 157.333L214.934 158.7C215.519 166.822 217.687 175.812 221.437 185.67C222.444 188.317 223.579 191.025 224.841 193.794L233.091 210.954L234.377 212.688L234.534 213.099C236.169 212.461 237.823 211.869 239.493 211.322C253.879 206.613 268.905 206.468 284.571 210.886L262.284 234.193C255.409 229.566 248.742 227.54 242.281 228.115C245.084 233.561 247.422 238.749 249.298 243.677C256.451 262.48 257.274 277.812 251.767 289.673C244.749 304.697 236.907 314.397 228.24 318.774C230.897 316.98 232.912 313.909 234.284 309.559C235.493 305.879 235.838 301.712 235.32 297.057C234.871 293.407 233.882 289.573 232.354 285.557C231.486 283.275 230.427 280.902 229.176 278.438L206.972 239.825L205.441 240.326C199.965 242.119 191.849 245.75 181.093 251.221C188.929 242.19 195.777 235.227 201.638 230.332C198.476 225.311 195.905 220.2 193.926 214.997C192.988 212.533 192.207 210.068 191.583 207.604C187.686 192.97 187.593 178.734 191.303 164.895Z" fill="black"/>
<path d="M338.311 177.369C337.665 173.22 334.284 169.911 328.169 167.441C319.936 175.474 316.429 183.399 317.646 191.215L325.741 243.176C326.388 247.325 329.768 250.635 335.883 253.104L348.11 241.218L338.311 177.369ZM374.309 236.263C374.67 238.579 375.597 240.724 377.09 242.699C378.232 244.325 379.658 245.866 381.367 247.321C383.493 248.921 385.511 250.14 387.42 250.98L368.248 269.654C364.348 268.084 360.815 265.384 357.65 261.555C355.329 258.701 353.222 255.328 351.332 251.435L327.415 274.846C313.54 271.395 304.668 263.912 300.8 252.399L300.654 252.417C299.966 250.537 299.378 248.348 298.891 245.852L299.036 245.833L291.324 196.333C290.528 191.219 292.391 185.422 296.914 178.943C300.455 173.769 305.684 168.332 312.6 162.63C320.462 156.022 328.426 150.384 336.492 145.718C345.528 147.915 352.472 151.903 357.325 157.682C361.206 162.305 363.651 167.85 364.658 174.315L374.309 236.263Z" fill="black"/>
<path d="M430.019 227.581C430.766 235.946 434.832 241.948 442.216 245.587L422.036 263.312L421.877 263.177L421.731 263.189C410.927 256.387 405.008 247.198 403.973 235.623L398.404 173.323C397.908 167.778 395.73 163.148 391.868 159.432C389.933 157.525 388.046 156.153 386.206 155.316L406.387 137.592L406.533 137.58L406.997 137.838L407.607 138.085L408.522 138.454C409.247 138.888 410.021 139.318 410.844 139.744C411.781 140.357 412.669 140.973 413.509 141.594C415.71 143.186 417.588 144.999 419.142 147.034C421.13 149.524 422.599 152.251 423.55 155.213L447.678 133.95C456.542 136.593 463.204 140.925 467.664 146.945C471.231 151.762 473.307 157.429 473.889 163.946L479.236 223.766C479.984 232.131 484.05 238.133 491.434 241.772L471.254 259.497L471.095 259.362L470.949 259.373C460.145 252.571 454.225 243.383 453.191 231.808L447.283 165.714C446.917 161.629 443.812 158.148 437.967 155.271L424.58 166.739L430.019 227.581Z" fill="black"/>
<path d="M539.249 145.072L538.455 223.291C538.399 228.857 540.108 233.656 543.583 237.689C545.32 239.754 547.062 241.282 548.81 242.273L526.968 258.206L526.823 258.059L526.53 258.056L526.238 257.907L525.51 257.462L524.491 256.867C523.716 256.275 522.891 255.682 522.019 255.089C521.05 254.3 520.131 253.462 519.261 252.576C516.939 250.408 515.157 248.001 513.914 245.354C512.286 242.117 511.492 238.644 511.529 234.933L512.443 144.85L501.604 144.76L507.603 131.04L512.73 131.082C512.793 124.833 512.252 120.385 511.107 117.738C510.249 115.68 509.048 113.717 507.505 111.849C505.767 109.881 504.024 108.402 502.276 107.411L524.265 91.4793L524.412 91.4805L524.557 91.6282L524.848 91.7771L525.576 92.2226L526.595 92.817C527.469 93.3125 528.293 93.9053 529.068 94.5953C530.037 95.287 531.006 96.0763 531.973 96.9632C534.197 99.2278 535.93 101.635 537.174 104.184C538.8 107.518 539.595 111.04 539.557 114.751L539.389 131.303L551.84 131.406L545.841 145.127L539.249 145.072Z" fill="black"/>
<path d="M627.97 166.948C628.469 162.779 626.093 158.799 620.842 155.009C610.695 160.918 605.152 167.799 604.212 175.653L597.967 227.869C597.468 232.038 599.844 236.018 605.095 239.808L620.153 231.075L627.97 166.948ZM646.86 232.251C646.581 234.579 646.897 236.87 647.808 239.125C648.473 240.962 649.436 242.781 650.695 244.582C652.32 246.617 653.943 248.26 655.564 249.51L631.943 263.236C628.593 260.824 625.904 257.4 623.878 252.966C622.403 249.67 621.279 245.92 620.503 241.715L591.004 258.95C578.507 252.438 571.946 243.16 571.321 231.117L571.176 231.102C571.019 229.122 571.043 226.866 571.247 224.335L571.393 224.35L577.343 174.607C577.957 169.468 581.332 164.274 587.467 159.026C592.297 154.819 598.833 150.741 607.074 146.793C616.476 142.182 625.714 138.534 634.787 135.852C642.94 140.043 648.582 145.494 651.713 152.203C654.218 157.571 655.082 163.503 654.305 170L646.86 232.251Z" fill="black"/>
<path d="M728.267 197.709C740.395 207.09 746.439 215.568 746.399 223.145C746.456 227.681 746.196 231.733 745.619 235.3C745.369 236.842 745.031 238.324 744.603 239.744C742.846 245.715 739.879 250.296 735.704 253.486C735.045 253.891 726.3 258.743 709.468 268.04C706.333 269.693 703.071 270.296 699.683 269.849C695.423 269.286 690.896 267.014 686.101 263.033C677.631 256.105 673.671 248.493 674.223 240.197L696.819 227.969C697.107 230.468 697.878 233.032 699.134 235.659C702.558 242.61 707.147 247.253 712.899 249.588C713.918 250.018 714.862 250.29 715.734 250.405C718.445 250.763 720.617 249.869 722.25 247.721C722.618 247.278 722.977 246.587 723.327 245.648L723.636 244.655L723.8 243.643C723.99 243.077 724.132 242.505 724.226 241.927C724.366 241.059 724.402 240.227 724.333 239.43C723.994 230.524 718.929 222.716 709.138 216.008C699.362 209.203 693.193 204.548 690.632 202.043C684.179 195.48 681.553 188.487 682.754 181.064L683.011 179.474C684.603 172.693 688.138 167.35 693.615 163.446L695.278 162.337L726.675 145.216C727.562 145.234 728.49 145.308 729.458 145.435C735.364 146.215 740.926 149.116 746.146 154.138C752.061 159.744 755.707 165.936 757.082 172.715L733.811 185.445C733.874 185.059 732.757 182.795 730.461 178.651C727.89 174.373 725.374 171.284 722.913 169.383C720.839 167.534 717.945 166.167 714.232 165.283L713.651 165.206C712.586 165.066 711.732 165.15 711.088 165.459L710.751 165.709C708.468 166.983 707.109 168.97 706.672 171.669L706.625 171.958C706.566 172.935 706.636 174.028 706.836 175.236C707.002 176.045 707.256 176.916 707.6 177.847C709.362 181.625 716.251 188.245 728.267 197.709Z" fill="black"/>
<path d="M794.043 253.521C792.446 258.853 792.777 263.874 795.035 268.582C796.149 270.983 797.418 272.869 798.841 274.241L773.077 284.261L772.977 284.085L772.835 284.048L772.593 283.835L772.01 283.232L771.184 282.417C770.501 281.637 769.865 280.87 769.276 280.115C768.554 279.124 767.893 278.099 767.294 277.038C765.64 274.399 764.576 271.658 764.102 268.817C763.418 265.318 763.608 261.791 764.672 258.236L784.288 192.7C785.884 187.368 785.554 182.347 783.296 177.639C782.182 175.238 780.913 173.352 779.49 171.98L805.112 161.923L805.254 161.96L805.496 162.173L805.738 162.386L806.321 162.989L807.146 163.804C807.763 164.466 808.399 165.233 809.055 166.106C809.777 167.097 810.451 168.076 811.079 169.042C812.705 171.776 813.769 174.516 814.271 177.263C814.927 180.856 814.723 184.43 813.659 187.985L794.043 253.521ZM816.371 128.394C816.763 129.804 817.312 131.204 818.017 132.593C818.988 134.453 820.123 136.104 821.423 137.545C823.919 140.098 826.964 141.835 830.558 142.756C832.545 143.265 834.71 143.517 837.054 143.513C832.084 148.888 826.465 152.687 820.198 154.909C815.535 156.535 811.265 156.851 807.386 155.858C800.575 154.113 794.92 148.333 790.423 138.518L816.371 128.394Z" fill="black"/>
<path d="M889.183 210.551C890.391 206.53 888.709 202.301 884.135 197.865C873.035 202.272 866.346 208.263 864.069 215.839L848.932 266.201C847.724 270.223 849.406 274.451 853.98 278.887L870.446 272.382L889.183 210.551ZM896.803 277.19C896.128 279.435 896.051 281.725 896.57 284.062C896.918 285.955 897.564 287.871 898.509 289.809C899.777 292.028 901.11 293.862 902.508 295.309L876.672 305.541C873.753 302.716 871.665 298.991 870.408 294.364C869.505 290.929 869.028 287.097 868.976 282.866L836.695 295.735C825.381 287.637 820.443 277.639 821.88 265.741L821.738 265.706C821.921 263.743 822.33 261.533 822.966 259.079L823.108 259.113L837.528 211.136C839.018 206.179 843.262 201.546 850.26 197.238C855.782 193.772 862.978 190.667 871.848 187.923C881.986 184.686 891.796 182.372 901.277 180.982C908.668 186.209 913.347 192.328 915.313 199.337C916.887 204.945 916.732 210.882 914.849 217.148L896.803 277.19Z" fill="black"/>
</svg>
